<svg width="36" height="36" viewBox="0 0 36 36" fill="none" xmlns="http://www.w3.org/2000/svg">
<path fill-rule="evenodd" clip-rule="evenodd" d="M9.36 3.00333H25.11C27.1678 2.94288 29.1642 3.70787 30.6547 5.1279C32.1452 6.54794 33.0058 8.50506 33.045 10.5633V21.9483C32.9224 26.1796 29.4174 29.5241 25.185 29.4483H22.755C22.1442 29.4499 21.5662 29.7251 21.18 30.1983L18.885 33.1233C18.5005 33.5991 17.9217 33.8755 17.31 33.8755C16.6983 33.8755 16.1195 33.5991 15.735 33.1233L13.365 30.1383C12.9788 29.6651 12.4008 29.3899 11.79 29.3883H9.36C5.12765 29.4641 1.62261 26.1196 1.5 21.8883V10.5033C1.61456 6.26849 5.12445 2.91936 9.36 3.00333ZM25.125 27.1983C28.1377 27.274 30.6451 24.9007 30.735 21.8883V10.5633C30.6452 7.54499 28.1285 5.16926 25.11 5.25333H9.36C6.34149 5.16926 3.82483 7.54499 3.735 10.5633V21.8883C3.82483 24.9067 6.34149 27.2824 9.36 27.1983H11.79C13.0907 27.1986 14.321 27.7889 15.135 28.8033L17.235 31.4733L19.335 28.8033C20.149 27.7889 21.3793 27.1986 22.68 27.1983H25.125Z" fill="black"/>
<path d="M11.61 13.4433C10.9887 13.4433 10.485 13.947 10.485 14.5683V18.1683C10.485 18.7896 10.9887 19.2933 11.61 19.2933C12.2313 19.2933 12.735 18.7896 12.735 18.1683V14.5683C12.735 13.947 12.2313 13.4433 11.61 13.4433Z" fill="black"/>
<path d="M17.235 13.4433C16.6137 13.4433 16.11 13.947 16.11 14.5683V18.1683C16.11 18.7896 16.6137 19.2933 17.235 19.2933C17.8563 19.2933 18.36 18.7896 18.36 18.1683V14.5683C18.36 13.947 17.8563 13.4433 17.235 13.4433Z" fill="black"/>
<path d="M22.86 13.4433C22.2387 13.4433 21.735 13.947 21.735 14.5683V18.1683C21.735 18.7896 22.2387 19.2933 22.86 19.2933C23.4813 19.2933 23.985 18.7896 23.985 18.1683V14.5683C23.985 13.947 23.4813 13.4433 22.86 13.4433Z" fill="black"/>
</svg>
