<svg width="36" height="36" viewBox="0 0 36 36" fill="none" xmlns="http://www.w3.org/2000/svg">
<path fill-rule="evenodd" clip-rule="evenodd" d="M21.6805 5.7048L29.1837 11.2469C30.6297 12.2934 31.4901 13.9667 31.5 15.7516V25.7843C31.4071 29.0013 28.7349 31.5401 25.5174 31.4685H10.4968C7.27379 31.5481 4.59292 29.007 4.5 25.7843V15.7516C4.50989 13.9667 5.37028 12.2934 6.81632 11.2469L14.3195 5.7048C16.5102 4.0984 19.4898 4.0984 21.6805 5.7048ZM11.6053 25.4574H24.3948C24.9834 25.4574 25.4606 24.9802 25.4606 24.3916C25.4606 23.803 24.9834 23.3258 24.3948 23.3258H11.6053C11.0167 23.3258 10.5396 23.803 10.5396 24.3916C10.5396 24.9802 11.0167 25.4574 11.6053 25.4574Z" fill="black"/>
</svg>
