<svg width="36" height="36" viewBox="0 0 36 36" fill="none" xmlns="http://www.w3.org/2000/svg">
<path fill-rule="evenodd" clip-rule="evenodd" d="M24.7652 5.82001C25.3113 5.4556 25.9537 5.26236 26.6102 5.26501C27.505 5.24475 28.3699 5.58712 29.0083 6.21427C29.6468 6.84142 30.0045 7.70007 30.0002 8.59501V27.405C30.0059 28.6488 29.3209 29.7931 28.2219 30.3756C27.1229 30.9582 25.7915 30.8828 24.7652 30.18L15.1652 23.775C14.6162 23.4033 13.9683 23.2047 13.3052 23.205H10.7102C9.82447 23.209 8.97361 22.8599 8.34587 22.235C7.71812 21.6101 7.36523 20.7608 7.36523 19.875V16.125C7.36523 15.2392 7.71812 14.39 8.34587 13.765C8.97361 13.1401 9.82447 12.791 10.7102 12.795H13.3052C13.9683 12.7953 14.6162 12.5967 15.1652 12.225L24.7652 5.82001ZM26.6102 28.485C27.2092 28.4851 27.697 28.0039 27.7052 27.405V8.59501C27.697 7.99613 27.2092 7.51495 26.6102 7.51501C26.3972 7.517 26.1892 7.57942 26.0102 7.69501L16.4102 14.1C15.4871 14.7006 14.4065 15.0139 13.3052 15H10.7102C10.4063 14.9993 10.1158 15.1249 9.90818 15.3468C9.70053 15.5686 9.59442 15.8668 9.61523 16.17V19.92C9.62344 20.5189 10.1113 21.0001 10.7102 21H13.3052C14.4065 20.9862 15.4871 21.2994 16.4102 21.9L26.0102 28.305C26.1892 28.4206 26.3972 28.483 26.6102 28.485Z" fill="black"/>
</svg>
