<svg width="36" height="36" viewBox="0 0 36 36" fill="none" xmlns="http://www.w3.org/2000/svg">
<path fill-rule="evenodd" clip-rule="evenodd" d="M6.79876 7.98737L7.9867 6.79943C13.5165 1.2696 22.4821 1.2696 28.012 6.79943L29.1999 7.98737C34.7297 13.5172 34.7297 22.4828 29.1999 28.0126L28.012 29.2006C22.4821 34.7304 13.5165 34.7304 7.9867 29.2006L6.79876 28.0126C1.26894 22.4828 1.26894 13.5172 6.79876 7.98737ZM19.5903 18L23.0375 14.5529C23.4768 14.1135 23.4768 13.4012 23.0375 12.9619C22.5981 12.5225 21.8858 12.5225 21.4465 12.9619L17.9993 16.409L14.5522 12.9619C14.1129 12.5225 13.4005 12.5225 12.9612 12.9619C12.5219 13.4012 12.5219 14.1135 12.9612 14.5529L16.4083 18L12.9612 21.4471C12.5219 21.8865 12.5219 22.5988 12.9612 23.0381C13.4005 23.4775 14.1129 23.4775 14.5522 23.0381L17.9993 19.591L21.4465 23.0381C21.8858 23.4775 22.5981 23.4775 23.0375 23.0381C23.4768 22.5988 23.4768 21.8865 23.0375 21.4471L19.5903 18Z" fill="black"/>
</svg>
