<svg width="36" height="36" viewBox="0 0 36 36" fill="none" xmlns="http://www.w3.org/2000/svg">
<path d="M18.7683 6.03194L19.9083 4.89194C20.3214 4.44867 20.3092 3.75792 19.8808 3.32951C19.4524 2.90109 18.7616 2.8889 18.3183 3.30194L15.3183 6.30194C14.8797 6.74116 14.8797 7.45271 15.3183 7.89194L18.3183 10.8919C18.7576 11.3306 19.4691 11.3306 19.9083 10.8919C20.347 10.4527 20.347 9.74117 19.9083 9.30194L18.9183 8.31194C23.9694 8.93761 27.9058 12.9917 28.3825 18.059C28.8592 23.1263 25.7479 27.8433 20.9021 29.4C16.0563 30.9567 10.78 28.9341 8.21636 24.5372C5.65273 20.1403 6.49166 14.5522 10.2333 11.1019C10.5959 10.6708 10.5837 10.0379 10.2048 9.62108C9.82584 9.20424 9.197 9.13195 8.73335 9.45194C4.17062 13.6546 3.17331 20.4779 6.3423 25.8107C9.51129 31.1435 15.9811 33.5295 21.8537 31.531C27.7263 29.5326 31.3979 23.6955 30.6563 17.5367C29.9147 11.3779 24.9625 6.57921 18.7833 6.03194H18.7683Z" fill="black"/>
</svg>
