<svg width="36" height="36" viewBox="0 0 36 36" fill="none" xmlns="http://www.w3.org/2000/svg">
<path fill-rule="evenodd" clip-rule="evenodd" d="M12.2864 7.62017C13.3168 5.69605 15.3238 4.49647 17.5064 4.50017C19.7276 4.48351 21.7763 5.69542 22.8314 7.65017L31.2914 23.3102C32.295 25.1695 32.2467 27.4197 31.1641 29.2343C30.0815 31.0488 28.1243 32.1602 26.0114 32.1602H9.00139C6.88212 32.1607 4.91979 31.0431 3.83896 29.2202C2.75813 27.3972 2.71914 25.1393 3.73639 23.2802L12.2864 7.62017ZM20.8064 8.71517C20.1557 7.49906 18.8856 6.74276 17.5064 6.75017C16.1474 6.75959 14.9008 7.5064 14.2514 8.70017L5.71639 24.3302C5.07891 25.4892 5.102 26.8989 5.77711 28.0364C6.45222 29.174 7.67863 29.8695 9.00139 29.8652H26.0114C27.3294 29.8571 28.5473 29.1604 29.2223 28.0283C29.8973 26.8962 29.9311 25.4935 29.3114 24.3302L20.8064 8.71517Z" fill="black"/>
<path d="M17.5064 22.5003C16.8851 22.5003 16.3814 23.004 16.3814 23.6253C16.3814 24.2467 16.8851 24.7503 17.5064 24.7503C17.806 24.7544 18.0945 24.6372 18.3064 24.4253C18.5182 24.2135 18.6355 23.9249 18.6314 23.6253C18.6314 23.3283 18.5124 23.0437 18.301 22.8351C18.0896 22.6265 17.8034 22.5113 17.5064 22.5153V22.5003Z" fill="black"/>
<path d="M17.5064 20.4453C16.8884 20.4373 16.3895 19.9383 16.3814 19.3203V14.6703C16.3814 14.049 16.8851 13.5453 17.5064 13.5453C18.1277 13.5453 18.6314 14.049 18.6314 14.6703V19.3203C18.6314 19.9417 18.1277 20.4453 17.5064 20.4453Z" fill="black"/>
</svg>
