<svg width="36" height="36" viewBox="0 0 36 36" fill="none" xmlns="http://www.w3.org/2000/svg">
<path fill-rule="evenodd" clip-rule="evenodd" d="M31.6598 23.22C30.9934 22.65 30.6098 21.8169 30.6098 20.94V13.71C30.6098 7.785 25.2398 3 18.6098 3C11.9799 3 6.60985 7.785 6.60985 13.71V20.94C6.60991 21.8169 6.22626 22.65 5.55985 23.22C3.29485 25.245 4.89985 28.695 8.10985 28.695H13.8098C14.5371 30.7206 16.4577 32.0716 18.6098 32.0716C20.762 32.0716 22.6826 30.7206 23.4098 28.695H29.1098C32.3198 28.695 33.9248 25.245 31.6598 23.22ZM18.6097 29.8198C17.7169 29.8165 16.8756 29.4013 16.3297 28.6948H20.8297C20.3012 29.3902 19.483 29.8048 18.6097 29.8198ZM29.1247 26.445C29.67 26.4944 30.1892 26.202 30.4297 25.71C30.5464 25.4136 30.4401 25.076 30.1747 24.9C29.0445 23.8918 28.3911 22.4544 28.3747 20.94V13.71C28.3747 9.045 23.9947 5.25 18.6247 5.25C13.2547 5.25 8.87467 9.045 8.87467 13.71V20.94C8.85822 22.4544 8.20483 23.8918 7.07467 24.9C6.80365 25.0715 6.69079 25.4101 6.80467 25.71C7.04511 26.202 7.56433 26.4944 8.10967 26.445H29.1247Z" fill="black"/>
</svg>
