<svg width="36" height="36" viewBox="0 0 36 36" fill="none" xmlns="http://www.w3.org/2000/svg">
<path fill-rule="evenodd" clip-rule="evenodd" d="M29.3694 25.065L29.7294 26.775C30.0706 28.2534 29.7337 29.8069 28.8109 31.0113C27.8881 32.2156 26.4756 32.9449 24.9594 33H11.0394C9.52317 32.9449 8.11076 32.2156 7.18793 31.0113C6.2651 29.8069 5.92826 28.2534 6.26941 26.775L6.62941 25.065C7.04346 22.7502 9.03334 21.0491 11.3844 21H24.6144C26.9655 21.0491 28.9554 22.7502 29.3694 25.065ZM24.9594 30.735C25.7211 30.7262 26.4379 30.3733 26.9094 29.775V29.79C27.4879 29.0643 27.7134 28.1187 27.5244 27.21L27.1644 25.5C26.9647 24.2328 25.8964 23.2839 24.6144 23.235H11.3844C10.1025 23.2839 9.03416 24.2328 8.83441 25.5L8.47441 27.21C8.29015 28.1139 8.51531 29.053 9.08941 29.775C9.56091 30.3733 10.2777 30.7262 11.0394 30.735H24.9594Z" fill="black"/>
<path fill-rule="evenodd" clip-rule="evenodd" d="M18.7494 18H17.2494C13.9357 18 11.2494 15.3137 11.2494 12V8.04002C11.2454 6.70211 11.7751 5.41784 12.7212 4.47179C13.6672 3.52574 14.9515 2.99602 16.2894 3.00002H19.7094C21.0473 2.99602 22.3316 3.52574 23.2776 4.47179C24.2237 5.41784 24.7534 6.70211 24.7494 8.04002V12C24.7494 15.3137 22.0631 18 18.7494 18ZM16.2894 5.25002C14.7485 5.25002 13.4994 6.49915 13.4994 8.04002V12C13.4994 14.0711 15.1783 15.75 17.2494 15.75H18.7494C20.8205 15.75 22.4994 14.0711 22.4994 12V8.04002C22.4994 7.30007 22.2054 6.59042 21.6822 6.06719C21.159 5.54397 20.4493 5.25002 19.7094 5.25002H16.2894Z" fill="black"/>
</svg>
