<svg width="36" height="36" viewBox="0 0 36 36" fill="none" xmlns="http://www.w3.org/2000/svg">
<path d="M29.5782 27.586L19.9875 18.0005L29.5782 8.48571C30.0588 7.92904 30.0328 7.09366 29.5185 6.56841C29.0041 6.04317 28.1748 6.00512 27.6152 6.4811L17.9965 15.9254L8.54601 6.41051C7.99912 5.86316 7.11588 5.86316 6.56899 6.41051C6.30354 6.67558 6.15424 7.0364 6.15424 7.41282C6.15424 7.78923 6.30354 8.15005 6.56899 8.41512L16.0054 17.9158L6.41475 27.4166C6.14931 27.6816 6 28.0425 6 28.4189C6 28.7953 6.14931 29.1561 6.41475 29.4212C6.67936 29.6854 7.03758 29.8327 7.41028 29.8306C7.77613 29.8328 8.12836 29.6909 8.39178 29.4353L17.9965 19.9063L27.6152 29.5906C27.8798 29.8548 28.238 30.0021 28.6107 30C28.9785 29.9984 29.331 29.8514 29.5922 29.5906C29.8558 29.3236 30.0026 28.9618 30 28.5853C29.9973 28.2089 29.8455 27.8492 29.5782 27.586Z" fill="black"/>
</svg>
