<svg width="36" height="36" viewBox="0 0 36 36" fill="none" xmlns="http://www.w3.org/2000/svg">
<path d="M19.7497 18.0121L31.143 6.65733C31.619 6.17686 31.619 5.39849 31.143 4.91802C30.6754 4.42896 29.9033 4.41427 29.4177 4.8852L18.0244 16.2399L6.77759 4.8852C6.54701 4.63932 6.22618 4.5 5.89054 4.5C5.5549 4.5 5.23407 4.63932 5.00349 4.8852C4.58145 5.34941 4.58145 6.06185 5.00349 6.52606L16.2503 17.8644L4.857 29.2027C4.381 29.6832 4.381 30.4616 4.857 30.942C5.08361 31.176 5.39527 31.3065 5.71964 31.303C6.05026 31.3301 6.37802 31.2238 6.6311 31.0077L18.0244 19.6529L29.4177 31.1389C29.6443 31.3729 29.956 31.5034 30.2804 31.4999C30.6044 31.5015 30.9153 31.3713 31.143 31.1389C31.619 30.6585 31.619 29.8801 31.143 29.3996L19.7497 18.0121Z" fill="black"/>
</svg>
