<svg width="36" height="36" viewBox="0 0 36 36" fill="none" xmlns="http://www.w3.org/2000/svg">
<path d="M28.4979 20.891V14.996C28.4979 9.22103 23.3379 4.49603 16.9629 4.49603C14.9859 4.48867 13.0361 4.95683 11.2779 5.86103L28.4979 22.106C28.4979 22.106 28.4979 21.731 28.4979 20.891Z" fill="black"/>
<path fill-rule="evenodd" clip-rule="evenodd" d="M5.7879 3.73103L33.7929 29.576H33.8079C34.1831 29.9977 34.2898 30.5944 34.084 31.12C33.8782 31.6457 33.3947 32.0112 32.8329 32.066C32.4716 32.072 32.1221 31.9376 31.8579 31.691L28.8579 28.871H21.1629C21.1629 31.3563 19.1482 33.371 16.6629 33.371C14.1776 33.371 12.1629 31.3563 12.1629 28.871H6.8529C5.52717 28.9985 4.26671 28.2703 3.71483 27.0582C3.16294 25.8461 3.44133 24.4173 4.4079 23.501C5.0419 22.9365 5.40707 22.1299 5.4129 21.281V14.216C5.49147 12.316 6.05427 10.4675 7.0479 8.84603L3.8379 5.84603C3.26356 5.56347 2.9318 4.94761 3.01182 4.31255C3.09185 3.6775 3.56604 3.16319 4.19251 3.03196C4.81899 2.90072 5.45973 3.18148 5.7879 3.73103ZM14.3229 28.886C14.3868 30.1147 15.4026 31.0777 16.6329 31.076V31.061C17.852 31.0552 18.8567 30.103 18.9279 28.886H14.3229Z" fill="black"/>
</svg>
