<svg width="24" height="24" viewBox="0 0 24 24" fill="none" xmlns="http://www.w3.org/2000/svg">
<rect x="0.5" y="0.5" width="23" height="23" rx="11.5" fill="white"/>
<rect x="0.5" y="0.5" width="23" height="23" rx="11.5" stroke="#E3E4E8"/>
<path d="M9.96421 16.1564C9.73325 16.1563 9.50947 16.0762 9.33087 15.9297L6.3442 13.4831C5.93582 13.1283 5.8836 12.5131 6.22636 12.0946C6.56912 11.676 7.18256 11.606 7.61087 11.9364L9.92421 13.8297L16.5909 7.68974C16.8415 7.39179 17.2422 7.26635 17.6179 7.36824C17.9937 7.47013 18.2761 7.78083 18.3418 8.16456C18.4076 8.54828 18.2446 8.93527 17.9242 9.15641L10.6442 15.8897C10.46 16.0623 10.2166 16.1578 9.96421 16.1564Z" fill="#E3E4E8"/>
</svg>
