<svg width="36" height="36" viewBox="0 0 36 36" fill="none" xmlns="http://www.w3.org/2000/svg">
<path fill-rule="evenodd" clip-rule="evenodd" d="M10.65 3.0016H25.725C29.8041 2.96713 33.1628 6.19918 33.285 10.2766V21.1966C33.1627 25.2799 29.7949 28.5143 25.71 28.4716H23.37C22.7871 28.4734 22.236 28.7379 21.87 29.1916L19.65 32.0116C19.2795 32.4576 18.7298 32.7156 18.15 32.7156C17.5702 32.7156 17.0205 32.4576 16.65 32.0116L14.415 29.1916C14.049 28.7379 13.4979 28.4734 12.915 28.4716H10.65C6.53608 28.5557 3.12258 25.3095 3 21.1966V10.2766C3.12258 6.16365 6.53608 2.91748 10.65 3.0016ZM12.525 18.7216C13.1463 18.7216 13.65 18.2179 13.65 17.5966V13.9966C13.65 13.3753 13.1463 12.8716 12.525 12.8716C11.9037 12.8716 11.4 13.3753 11.4 13.9966V17.5966C11.4 18.2179 11.9037 18.7216 12.525 18.7216ZM19.275 17.5966C19.275 18.2179 18.7713 18.7216 18.15 18.7216C17.5287 18.7216 17.025 18.2179 17.025 17.5966V13.9966C17.025 13.3753 17.5287 12.8716 18.15 12.8716C18.7713 12.8716 19.275 13.3753 19.275 13.9966V17.5966ZM23.775 18.7216C24.3963 18.7216 24.9 18.2179 24.9 17.5966V13.9966C24.9 13.3753 24.3963 12.8716 23.775 12.8716C23.1537 12.8716 22.65 13.3753 22.65 13.9966V17.5966C22.65 18.2179 23.1537 18.7216 23.775 18.7216Z" fill="black"/>
</svg>
