<svg width="24" height="24" viewBox="0 0 24 24" fill="none" xmlns="http://www.w3.org/2000/svg">
<path fill-rule="evenodd" clip-rule="evenodd" d="M12 24C18.6274 24 24 18.6274 24 12C24 5.37258 18.6274 0 12 0C5.37258 0 0 5.37258 0 12C0 18.6274 5.37258 24 12 24ZM9.33087 15.9264C9.50947 16.0728 9.73325 16.1529 9.9642 16.1531C10.2166 16.1545 10.46 16.059 10.6442 15.8864L14.2842 12.5197L17.9242 9.15308C18.2446 8.93194 18.4076 8.54496 18.3418 8.16123C18.2761 7.7775 17.9937 7.4668 17.6179 7.36491C17.2422 7.26302 16.8415 7.38846 16.5909 7.68641L9.92421 13.8264L7.61087 11.9331C7.18256 11.6026 6.56912 11.6727 6.22636 12.0912C5.8836 12.5097 5.93582 13.125 6.3442 13.4797L9.33087 15.9264Z" fill="#E3E4E8"/>
</svg>
