<svg width="36" height="36" viewBox="0 0 36 36" fill="none" xmlns="http://www.w3.org/2000/svg">
<path fill-rule="evenodd" clip-rule="evenodd" d="M30.6098 20.955C30.6142 21.8267 30.9974 22.6534 31.6598 23.22C33.9248 25.245 32.3198 28.71 29.1098 28.71H23.4098C22.6711 30.7265 20.7574 32.0721 18.6098 32.085C16.4552 32.0942 14.5302 30.7406 13.8098 28.71H8.10985C4.89985 28.71 3.29485 25.245 5.55985 23.22C6.2223 22.6534 6.60554 21.8267 6.60985 20.955V13.71C6.60985 7.8 11.9799 3 18.6098 3C25.2398 3 30.6098 7.8 30.6098 13.71V20.955ZM16.3298 28.71C16.8757 29.4165 17.717 29.8316 18.6098 29.835C19.4815 29.8134 20.297 29.4002 20.8298 28.71H16.3298Z" fill="black"/>
</svg>
