<svg width="36" height="36" viewBox="0 0 36 36" fill="none" xmlns="http://www.w3.org/2000/svg">
<path d="M15 11.0855H6C5.17157 11.0855 4.5 11.7571 4.5 12.5855C4.5 13.4139 5.17157 14.0855 6 14.0855H15C15.8284 14.0855 16.5 13.4139 16.5 12.5855C16.5 11.7571 15.8284 11.0855 15 11.0855Z" fill="black"/>
<path d="M12 21.2405C10.731 21.2367 9.56906 21.9512 9 23.0855H6C5.17157 23.0855 4.5 23.7571 4.5 24.5855C4.5 25.4139 5.17157 26.0855 6 26.0855H9C9.7431 27.5398 11.4312 28.2406 12.9858 27.7401C14.5403 27.2397 15.5026 25.6857 15.2577 24.071C15.0128 22.4563 13.6331 21.2575 12 21.2405Z" fill="black"/>
<path d="M20.58 15.6905C21.7408 15.6888 22.8162 15.08 23.415 14.0855H30C30.8284 14.0855 31.5 13.4139 31.5 12.5855C31.5 11.7571 30.8284 11.0855 30 11.0855H23.67C23.0362 9.52697 21.3435 8.6817 19.7168 9.11152C18.0902 9.54134 17.0359 11.1125 17.2548 12.7807C17.4737 14.4488 18.8975 15.6948 20.58 15.6905Z" fill="black"/>
<path d="M30 23.0855H18C17.1716 23.0855 16.5 23.7571 16.5 24.5855C16.5 25.4139 17.1716 26.0855 18 26.0855H30C30.8284 26.0855 31.5 25.4139 31.5 24.5855C31.5 23.7571 30.8284 23.0855 30 23.0855Z" fill="black"/>
</svg>
