<svg width="36" height="36" viewBox="0 0 36 36" fill="none" xmlns="http://www.w3.org/2000/svg">
<path fill-rule="evenodd" clip-rule="evenodd" d="M21.36 3H15C8.37258 3 3 8.37258 3 15V21.36C3 27.9874 8.37258 33.36 15 33.36H21.36C27.9874 33.36 33.36 27.9874 33.36 21.36V15C33.36 11.8174 32.0957 8.76516 29.8453 6.51472C27.5948 4.26428 24.5426 3 21.36 3ZM20.25 24.54C20.3165 25.3189 19.9385 26.0687 19.273 26.4786C18.6074 26.8885 17.7676 26.8885 17.102 26.4786C16.4364 26.0687 16.0585 25.3189 16.125 24.54C16.1411 23.4118 17.0518 22.5011 18.18 22.485C19.2801 22.4994 20.1797 23.3662 20.235 24.465L20.25 24.54ZM22.455 22.5C22.8102 22.5049 23.1458 22.3371 23.355 22.05C23.5429 21.8119 23.6252 21.5072 23.5827 21.2069C23.5402 20.9065 23.3766 20.6366 23.13 20.46C20.1822 18.287 16.1628 18.287 13.215 20.46C12.7138 20.8328 12.6097 21.5413 12.9825 22.0425C13.3553 22.5437 14.0638 22.6478 14.565 22.275C16.7014 20.6675 19.6436 20.6675 21.78 22.275C21.9762 22.4183 22.2121 22.4969 22.455 22.5ZM25.935 18.825C25.5576 19.3172 24.8531 19.4111 24.36 19.035C22.5997 17.6722 20.4362 16.9335 18.21 16.935C15.9742 16.9457 13.8035 17.6886 12.03 19.05C11.8358 19.197 11.5986 19.2761 11.355 19.275C11.004 19.2763 10.672 19.1158 10.455 18.84C10.1275 18.3607 10.2185 17.7109 10.665 17.34C12.819 15.6893 15.4513 14.7838 18.165 14.76C20.8795 14.764 23.5165 15.6658 25.665 17.325C26.1383 17.6744 26.2567 18.3325 25.935 18.825ZM27.585 16.065C27.9375 16.0734 28.2725 15.9115 28.485 15.63C28.8786 15.1565 28.8184 14.4546 28.35 14.055C22.4054 9.45697 14.1046 9.45697 8.16 14.055C7.66599 14.4378 7.57232 15.147 7.95 15.645C8.32516 16.0866 8.97439 16.171 9.45 15.84C14.5831 11.841 21.7769 11.841 26.91 15.84C27.1042 15.987 27.3414 16.0661 27.585 16.065Z" fill="black"/>
</svg>
