<svg width="36" height="36" viewBox="0 0 36 36" fill="none" xmlns="http://www.w3.org/2000/svg">
<path d="M16.966 24.81L11.371 19.23C11.1338 18.9936 11.0004 18.6724 11.0004 18.3375C11.0004 18.0026 11.1338 17.6814 11.371 17.445C11.87 16.9669 12.6571 16.9669 13.156 17.445L16.591 20.895V5.76C16.591 5.06412 17.1552 4.5 17.851 4.5C18.5469 4.5 19.111 5.06412 19.111 5.76V20.895L22.546 17.445C23.045 16.9669 23.8321 16.9669 24.331 17.445C24.5683 17.6814 24.7016 18.0026 24.7016 18.3375C24.7016 18.6724 24.5683 18.9936 24.331 19.23L18.736 24.81C18.5051 25.0513 18.185 25.187 17.851 25.185C17.5163 25.1906 17.1948 25.0544 16.966 24.81Z" fill="black"/>
<path d="M25.6811 12.63H27.4961C31.2704 12.712 34.268 15.8303 34.2011 19.605V25.32C34.268 29.0947 31.2704 32.213 27.4961 32.295L8.20605 32.175C4.43169 32.093 1.43407 28.9747 1.50105 25.2V19.485C1.45679 17.6643 2.13891 15.9007 3.39687 14.5837C4.65482 13.2666 6.38519 12.5043 8.20605 12.465H10.0211C10.7169 12.465 11.2811 13.0291 11.2811 13.725C11.2811 14.4209 10.7169 14.985 10.0211 14.985H8.20605C7.05203 15.0201 5.96006 15.5156 5.1738 16.361C4.38754 17.2065 3.97241 18.3315 4.02105 19.485V25.155C3.97241 26.3085 4.38754 27.4335 5.1738 28.279C5.96006 29.1244 7.05203 29.6199 8.20605 29.655L27.4961 29.865C28.6501 29.8299 29.742 29.3344 30.5283 28.489C31.3146 27.6435 31.7297 26.5185 31.6811 25.365V19.65C31.7297 18.4965 31.3146 17.3715 30.5283 16.526C29.742 15.6806 28.6501 15.1851 27.4961 15.15H25.6811C24.9852 15.15 24.4211 14.5859 24.4211 13.89C24.4211 13.1941 24.9852 12.63 25.6811 12.63Z" fill="black"/>
</svg>
