<svg width="36" height="36" viewBox="0 0 36 36" fill="none" xmlns="http://www.w3.org/2000/svg">
<path d="M33.9916 19.995V25.875C34.0587 29.0341 31.5556 31.6513 28.3966 31.725L8.59663 31.62C5.43527 31.5381 2.93451 28.9167 3.00163 25.755V19.875C2.9654 18.3552 3.53462 16.8833 4.58397 15.7833C5.63333 14.6833 7.0768 14.0454 8.59663 14.01H17.2066V21.285L13.6816 17.79C13.4395 17.5463 13.1101 17.4093 12.7666 17.4093C12.4231 17.4093 12.0938 17.5463 11.8516 17.79C11.6003 18.028 11.4579 18.3589 11.4579 18.705C11.4579 19.0511 11.6003 19.382 11.8516 19.62L17.5816 25.35C18.0894 25.8494 18.9038 25.8494 19.4116 25.35L25.1416 19.62C25.393 19.382 25.5354 19.0511 25.5354 18.705C25.5354 18.3589 25.393 18.028 25.1416 17.79C24.8995 17.5463 24.5701 17.4093 24.2266 17.4093C23.8831 17.4093 23.5538 17.5463 23.3116 17.79L19.7866 21.33V14.07H28.3966C29.9272 14.1052 31.38 14.7514 32.4311 15.8644C33.4822 16.9775 34.0441 18.465 33.9916 19.995Z" fill="black"/>
<path d="M19.7866 5.79L19.7866 14.07H17.2066V5.79C17.2066 5.07755 17.7842 4.5 18.4966 4.5C19.2091 4.5 19.7866 5.07755 19.7866 5.79Z" fill="black"/>
</svg>
