<svg width="36" height="36" viewBox="0 0 36 36" fill="none" xmlns="http://www.w3.org/2000/svg">
<path fill-rule="evenodd" clip-rule="evenodd" d="M25.5414 11.4739L31.8114 16.4839C32.2168 16.8085 32.4528 17.2996 32.4528 17.8189C32.4528 18.3382 32.2168 18.8294 31.8114 19.1539L25.5414 24.1639C21.4089 27.4625 15.5439 27.4625 11.4114 24.1639L5.14141 19.1539C4.73599 18.8294 4.5 18.3382 4.5 17.8189C4.5 17.2996 4.73599 16.8085 5.14141 16.4839L11.4114 11.4739C15.5439 8.17536 21.4089 8.17536 25.5414 11.4739ZM15.0264 17.8189C15.0264 19.7243 16.571 21.2689 18.4764 21.2689C20.3818 21.2689 21.9264 19.7243 21.9264 17.8189C21.9264 15.9135 20.3818 14.3689 18.4764 14.3689C16.571 14.3689 15.0264 15.9135 15.0264 17.8189Z" fill="black"/>
</svg>
