<svg width="36" height="36" viewBox="0 0 36 36" fill="none" xmlns="http://www.w3.org/2000/svg">
<path fill-rule="evenodd" clip-rule="evenodd" d="M29.9074 11.504C27.7681 6.36704 22.7556 3.01506 17.191 3.00019C11.1937 2.96861 5.86105 6.81008 3.99157 12.5086C2.12209 18.2072 4.14285 24.461 8.99338 27.9882C13.8439 31.5154 20.4161 31.5101 25.261 27.9752L29.581 32.2952C30.0202 32.7339 30.7318 32.7339 31.171 32.2952C31.6097 31.856 31.6097 31.1444 31.171 30.7052L26.986 26.5202C30.8951 22.56 32.0467 16.6409 29.9074 11.504ZM27.9016 21.2536C26.1054 25.5821 21.8774 28.4013 17.191 28.3952V28.3352C10.8306 28.3271 5.66718 23.1905 5.62599 16.8302C5.61992 12.1438 8.43908 7.91576 12.7676 6.11955C17.0961 4.32334 22.0805 5.31312 25.3943 8.62691C28.7081 11.9407 29.6978 16.9251 27.9016 21.2536Z" fill="black"/>
</svg>
