<svg width="36" height="36" viewBox="0 0 36 36" fill="none" xmlns="http://www.w3.org/2000/svg">
<path d="M18.8126 25.965C18.2245 25.5754 17.4743 25.5254 16.8397 25.8335C16.2051 26.1416 15.7803 26.7619 15.7226 27.465V27.555C15.8123 28.5859 16.6753 29.3772 17.7101 29.3772C18.7449 29.3772 19.608 28.5859 19.6976 27.555V27.465C19.648 26.8558 19.3218 26.303 18.8126 25.965Z" fill="black"/>
<path d="M10.1876 21.6C9.71741 21.9542 9.6114 22.6168 9.94761 23.1C10.306 23.5632 10.9626 23.6682 11.4476 23.34C15.1061 20.6322 20.1042 20.6322 23.7626 23.34C23.9533 23.4936 24.1929 23.5734 24.4376 23.565C24.8847 23.5552 25.2823 23.278 25.4461 22.8619C25.6099 22.4458 25.508 21.972 25.1876 21.66C20.7454 18.3418 14.6562 18.3174 10.1876 21.6Z" fill="black"/>
<path d="M33.3776 11.415C28.8825 7.93898 23.3698 6.03639 17.6876 6C12.008 6.02223 6.49384 7.91475 1.99762 11.385C1.64825 11.6197 1.45913 12.0299 1.50746 12.448C1.55579 12.8661 1.83348 13.2223 2.22719 13.3711C2.6209 13.52 3.06476 13.4366 3.37762 13.155C7.47841 9.9908 12.508 8.26682 17.6876 8.25C22.8829 8.27198 27.925 10.0124 32.0276 13.2C32.2611 13.3862 32.5598 13.4705 32.8561 13.4338C33.1525 13.3971 33.4216 13.2425 33.6026 13.005C33.7864 12.7653 33.8661 12.4618 33.8238 12.1628C33.7815 11.8637 33.6207 11.5943 33.3776 11.415Z" fill="black"/>
<path d="M17.6876 12.555C13.4842 12.5575 9.4005 13.9556 6.07761 16.53C5.58545 16.9074 5.49151 17.6119 5.86761 18.105C6.08307 18.3847 6.41461 18.5504 6.76761 18.555C7.02223 18.5681 7.27442 18.4998 7.48761 18.36C13.5087 13.6914 21.9266 13.6914 27.9476 18.36C28.4414 18.6993 29.1145 18.5921 29.4784 18.1162C29.8423 17.6403 29.7694 16.9626 29.3126 16.575C25.9937 13.9773 21.9023 12.5624 17.6876 12.555Z" fill="black"/>
</svg>
