<svg width="36" height="36" viewBox="0 0 36 36" fill="none" xmlns="http://www.w3.org/2000/svg">
<path d="M12.2681 6.50809C13.7824 5.73612 15.4584 5.3351 17.1581 5.33809C22.5881 5.33809 26.9981 9.29809 26.9981 14.1731V20.8931C26.9958 22.0375 27.4813 23.1287 28.3331 23.8931C28.5434 24.0823 28.8152 24.1889 29.0981 24.1931C29.4131 24.1875 29.7117 24.0517 29.9231 23.8181C30.1241 23.5974 30.2292 23.3058 30.2151 23.0076C30.2011 22.7093 30.069 22.4289 29.8481 22.2281C29.4773 21.9067 29.2594 21.4437 29.2481 20.9531V14.1731C29.2481 8.05309 23.8331 3.08809 17.1581 3.08809C15.1048 3.08825 13.0803 3.57125 11.2481 4.49809C10.693 4.77976 10.4714 5.45805 10.7531 6.01309C11.0348 6.56814 11.713 6.78976 12.2681 6.50809Z" fill="black"/>
<path fill-rule="evenodd" clip-rule="evenodd" d="M31.9481 30.3581L4.94809 3.35809C4.66764 3.05711 4.24526 2.93322 3.84666 3.03501C3.44806 3.13681 3.13681 3.44806 3.03501 3.84666C2.93322 4.24526 3.05711 4.66764 3.35809 4.94809L6.50809 8.11309C5.54365 9.71771 5.02576 11.551 5.00809 13.4231V20.1431C5.00251 20.6318 4.7899 21.0951 4.42309 21.4181C3.21632 22.4846 2.79268 24.1851 3.35809 25.6931C4.04242 27.3771 5.69578 28.4634 7.51309 28.4231H12.3281C12.3281 30.9995 14.4167 33.0881 16.9931 33.0881C19.5695 33.0881 21.6581 30.9995 21.6581 28.4231H26.8781L30.3581 31.8881C30.7973 32.3268 31.5089 32.3268 31.9481 31.8881C32.3483 31.4566 32.3483 30.7896 31.9481 30.3581ZM16.9481 30.8381C15.6843 30.7756 14.683 29.7481 14.6531 28.4831H19.4831C19.4674 29.1263 19.1957 29.7367 18.7282 30.1788C18.2608 30.621 17.6362 30.8583 16.9931 30.8381H16.9481ZM5.45809 24.9431C5.80025 25.7653 6.62385 26.2824 7.51309 26.2331L24.6731 26.2781L8.17309 9.77809C7.59438 10.9068 7.28625 12.1547 7.27309 13.4231V20.0831C7.28519 21.2296 6.7979 22.3246 5.93809 23.0831C5.39235 23.5338 5.19862 24.2846 5.45809 24.9431Z" fill="black"/>
</svg>
