<svg width="36" height="36" viewBox="0 0 36 36" fill="none" xmlns="http://www.w3.org/2000/svg">
<path fill-rule="evenodd" clip-rule="evenodd" d="M11.34 3H24.66C29.2661 3 33 6.73395 33 11.34V24.66C33 29.2661 29.2661 33 24.66 33H11.34C6.73395 33 3 29.2661 3 24.66V11.34C3 6.73395 6.73395 3 11.34 3ZM8.56282 22.8077C10.084 26.6919 13.8286 29.2481 18 29.25C23.2333 29.2161 27.5811 25.2052 28.036 19.9916C28.4909 14.778 24.9033 10.0747 19.755 9.135L19.995 8.88C20.4838 8.39537 20.4871 7.60627 20.0025 7.1175C19.5179 6.62873 18.7288 6.62537 18.24 7.11L16.005 9.33C15.7649 9.56179 15.6292 9.88123 15.6292 10.215C15.6292 10.5488 15.7649 10.8682 16.005 11.1L18.24 13.335C18.4726 13.5629 18.7844 13.6919 19.11 13.695C19.4399 13.6912 19.7561 13.5626 19.995 13.335C20.3863 12.9314 20.4542 12.314 20.16 11.835C23.5056 12.8336 25.7566 15.9631 25.6392 19.4525C25.5217 22.9419 23.0654 25.9131 19.6603 26.6844C16.2551 27.4558 12.7582 25.8333 11.1485 22.7351C9.53875 19.6369 10.2214 15.8428 12.81 13.5C13.3153 13.0319 13.3456 12.2428 12.8775 11.7375C12.4094 11.2322 11.6203 11.2019 11.115 11.67C8.05434 14.5042 7.04165 18.9236 8.56282 22.8077Z" fill="black"/>
</svg>
