<svg width="36" height="37" viewBox="0 0 36 37" fill="none" xmlns="http://www.w3.org/2000/svg">
<path d="M25.155 31.1765L18.72 26.2415C18.1084 25.7764 17.2616 25.7764 16.65 26.2415L10.155 31.1765C9.68137 31.5572 9.03565 31.6438 8.47841 31.4014C7.92117 31.159 7.54435 30.6275 7.5 30.0215V8.93147C7.55818 7.69497 8.10698 6.53269 9.02484 5.70212C9.9427 4.87154 11.1538 4.44121 12.39 4.50647H22.89C24.1336 4.44964 25.3481 4.89384 26.2615 5.73964C27.175 6.58543 27.7111 7.76218 27.75 9.00647V30.0215C27.6916 30.6058 27.3244 31.1139 26.7879 31.3526C26.2515 31.5914 25.6282 31.5242 25.155 31.1765Z" fill="black"/>
</svg>
