<svg width="36" height="36" viewBox="0 0 36 36" fill="none" xmlns="http://www.w3.org/2000/svg">
<path fill-rule="evenodd" clip-rule="evenodd" d="M12.5636 4.50651H23.4364C24.7138 4.44122 25.9657 4.8693 26.9157 5.69629C27.8657 6.52328 28.4357 7.68118 28.5 8.91445V29.9946C28.5017 30.4168 28.319 30.8201 27.9968 31.1055C27.6745 31.3909 27.2425 31.5319 26.8069 31.4939C26.4252 31.4939 26.054 31.3728 25.7507 31.1491L19.0251 26.2164C18.39 25.7566 17.5168 25.7566 16.8816 26.2164L10.2182 31.1491C9.92334 31.3666 9.56413 31.4875 9.19306 31.4939C8.75747 31.5319 8.32548 31.3909 8.00321 31.1055C7.68093 30.8201 7.49824 30.4168 7.50001 29.9946V8.91445C7.56425 7.68118 8.13427 6.52328 9.08426 5.69629C10.0343 4.8693 11.2861 4.44122 12.5636 4.50651ZM20.4697 24.4322L26.139 28.6302L26.108 8.91445C25.961 7.6073 24.7631 6.65039 23.4053 6.75546H12.5325C11.1748 6.65039 9.97688 7.6073 9.82989 8.91445V28.6302L15.4993 24.4322C16.9673 23.3525 19.0016 23.3525 20.4697 24.4322Z" fill="black"/>
</svg>
