<svg width="36" height="36" viewBox="0 0 36 36" fill="none" xmlns="http://www.w3.org/2000/svg">
<path d="M24.1051 5.82L14.5051 12.225C13.956 12.5967 13.3081 12.7953 12.6451 12.795H10.0501C9.16431 12.791 8.31345 13.1401 7.68571 13.765C7.05797 14.3899 6.70507 15.2392 6.70508 16.125V19.875C6.70507 20.7608 7.05797 21.6101 7.68571 22.235C8.31345 22.8599 9.16431 23.209 10.0501 23.205H12.6451C13.3081 23.2047 13.956 23.4033 14.5051 23.775L24.1051 30.18C25.1299 30.8577 26.4438 30.919 27.5273 30.3397C28.6108 29.7604 29.2895 28.6336 29.2951 27.405V8.595C29.2895 7.36636 28.6108 6.23965 27.5273 5.66032C26.4438 5.081 25.1299 5.1423 24.1051 5.82Z" fill="black"/>
</svg>
