<svg width="36" height="36" viewBox="0 0 36 36" fill="none" xmlns="http://www.w3.org/2000/svg">
<path fill-rule="evenodd" clip-rule="evenodd" d="M13.6885 18.222C13.6885 15.9054 15.477 14.0275 17.6832 14.0275C19.8895 14.0275 21.678 15.9054 21.678 18.222C21.678 20.5385 19.8895 22.4164 17.6832 22.4164C15.477 22.4164 13.6885 20.5385 13.6885 18.222ZM16.2937 18.222C16.2937 19.0277 16.9158 19.6809 17.6832 19.6809C18.4506 19.6809 19.0727 19.0277 19.0727 18.222C19.0727 17.4162 18.4506 16.763 17.6832 16.763C16.9158 16.763 16.2937 17.4162 16.2937 18.222Z" fill="black"/>
<path fill-rule="evenodd" clip-rule="evenodd" d="M25.8637 10.5078L33.1237 16.5989C33.5932 16.9934 33.8664 17.5906 33.8664 18.222C33.8664 18.8533 33.5932 19.4505 33.1237 19.845L25.8637 25.9361C21.0788 29.9465 14.2877 29.9465 9.50269 25.9361L2.24269 19.845C1.77325 19.4505 1.5 18.8533 1.5 18.222C1.5 17.5906 1.77325 16.9934 2.24269 16.5989L9.50269 10.5078C14.2877 6.49741 21.0788 6.49741 25.8637 10.5078ZM11.1179 23.8936C14.9605 27.1048 20.4059 27.1048 24.2485 23.8936L30.8832 18.222L24.2485 12.6415C20.4059 9.43027 14.9605 9.43027 11.1179 12.6415L4.48321 18.222L11.1179 23.8936Z" fill="black"/>
</svg>
