<svg width="36" height="36" viewBox="0 0 36 36" fill="none" xmlns="http://www.w3.org/2000/svg">
<path d="M23.9999 32.25C23.4037 32.2479 22.8324 32.0107 22.4099 31.59L10.4099 19.59C9.98484 19.1701 9.74561 18.5975 9.74561 18C9.74561 17.4025 9.98484 16.8299 10.4099 16.41L22.4099 4.41003C22.9708 3.80807 23.8156 3.56029 24.6128 3.76388C25.41 3.96747 26.0325 4.58997 26.2361 5.38717C26.4396 6.18437 26.1919 7.02912 25.5899 7.59003L15.1799 18L25.5899 28.41C26.015 28.8299 26.2542 29.4025 26.2542 30C26.2542 30.5975 26.015 31.1701 25.5899 31.59C25.1674 32.0107 24.5961 32.2479 23.9999 32.25Z" fill="black"/>
</svg>
