<svg width="36" height="36" viewBox="0 0 36 36" fill="none" xmlns="http://www.w3.org/2000/svg">
<path d="M24.0004 32.2495C23.4042 32.2474 22.8329 32.0102 22.4104 31.5895L10.4104 19.5895C9.98533 19.1696 9.74609 18.597 9.74609 17.9995C9.74609 17.4021 9.98533 16.8294 10.4104 16.4095L22.4104 4.40954C22.9713 3.80759 23.8161 3.5598 24.6133 3.76339C25.4105 3.96698 26.033 4.58948 26.2365 5.38668C26.4401 6.18388 26.1923 7.02863 25.5904 7.58954L15.1804 17.9995L25.5904 28.4095C26.0154 28.8294 26.2547 29.4021 26.2547 29.9995C26.2547 30.597 26.0154 31.1696 25.5904 31.5895C25.1679 32.0102 24.5966 32.2474 24.0004 32.2495Z" fill="black"/>
</svg>
