<svg width="36" height="36" viewBox="0 0 36 36" fill="none" xmlns="http://www.w3.org/2000/svg">
<path fill-rule="evenodd" clip-rule="evenodd" d="M31.2832 23.2553L22.8232 7.59526C21.7665 5.68537 19.7559 4.5 17.5732 4.5C15.3905 4.5 13.3799 5.68537 12.3232 7.59526L3.72821 23.2403C2.71841 25.0984 2.76135 27.3508 3.84123 29.1691C4.92111 30.9874 6.87845 32.1029 8.99321 32.1053H26.0032C28.1162 32.1053 30.0734 30.9939 31.1559 29.1794C32.2385 27.3648 32.2869 25.1146 31.2832 23.2553ZM16.2832 14.6153C16.2832 13.9939 16.7869 13.4903 17.4082 13.4903C18.0295 13.4903 18.5332 13.9939 18.5332 14.6153V19.2503C18.5332 19.8716 18.0295 20.3753 17.4082 20.3753C16.7869 20.3753 16.2832 19.8716 16.2832 19.2503V14.6153ZM17.4232 24.7403C18.0445 24.7403 18.5482 24.2366 18.5482 23.6153L18.5332 23.6003C18.5332 22.9872 18.0362 22.4903 17.4232 22.4903C16.8053 22.4983 16.3063 22.9973 16.2982 23.6153C16.2982 24.2366 16.8019 24.7403 17.4232 24.7403Z" fill="black"/>
</svg>
