<svg width="36" height="36" viewBox="0 0 36 36" fill="none" xmlns="http://www.w3.org/2000/svg">
<path d="M24.9594 33H11.0394C9.52317 32.9449 8.11076 32.2156 7.18793 31.0112C6.2651 29.8069 5.92826 28.2534 6.26941 26.775L6.62941 25.065C7.04346 22.7502 9.03334 21.0491 11.3844 21H24.6144C26.9655 21.0491 28.9554 22.7502 29.3694 25.065L29.7294 26.775C30.0706 28.2534 29.7337 29.8069 28.8109 31.0112C27.8881 32.2156 26.4756 32.9449 24.9594 33Z" fill="black"/>
<path d="M18.7494 18H17.2494C13.9357 18 11.2494 15.3137 11.2494 12V8.04002C11.2454 6.70211 11.7751 5.41784 12.7212 4.47179C13.6672 3.52574 14.9515 2.99602 16.2894 3.00002H19.7094C21.0473 2.99602 22.3316 3.52574 23.2776 4.47179C24.2237 5.41784 24.7534 6.70211 24.7494 8.04002V12C24.7494 13.5913 24.1173 15.1174 22.9921 16.2427C21.8668 17.3679 20.3407 18 18.7494 18Z" fill="black"/>
</svg>
