<svg width="36" height="36" viewBox="0 0 36 36" fill="none" xmlns="http://www.w3.org/2000/svg">
<path fill-rule="evenodd" clip-rule="evenodd" d="M30.435 10.5007L22.095 4.33572C19.6555 2.55476 16.3445 2.55476 13.905 4.33572L5.58 10.5007C3.96816 11.6619 3.00916 13.5242 3 15.5107V26.6557C3.09004 30.2456 6.06997 33.0846 9.66 33.0007H26.34C29.93 33.0846 32.91 30.2456 33 26.6557V15.4957C32.9871 13.5178 32.035 11.6636 30.435 10.5007ZM30.75 26.6558C30.6605 29.0033 28.6876 30.8353 26.34 30.7508H9.66C7.31546 30.8269 5.34753 28.9996 5.25 26.6558V15.5108C5.258 14.2357 5.87726 13.0418 6.915 12.3008L15.24 6.15084C16.8841 4.95021 19.1159 4.95021 20.76 6.15084L29.085 12.3158C30.1219 13.044 30.7423 14.2289 30.75 15.4958V26.6558ZM11.25 23.6257H24.75C25.3713 23.6257 25.875 24.1294 25.875 24.7507C25.875 25.3721 25.3713 25.8757 24.75 25.8757H11.25C10.6287 25.8757 10.125 25.3721 10.125 24.7507C10.125 24.1294 10.6287 23.6257 11.25 23.6257Z" fill="black"/>
</svg>
